<?xml version="1.0" encoding="UTF-8"?>
<!DOCTYPE svg PUBLIC "-//W3C//DTD SVG 1.1//EN" "http://www.w3.org/Graphics/SVG/1.1/DTD/svg11.dtd">
<!-- Creator: CorelDRAW X7 -->
<svg xmlns="http://www.w3.org/2000/svg" xml:space="preserve" width="120px" height="120px" version="1.1" style="shape-rendering:geometricPrecision; text-rendering:geometricPrecision; image-rendering:optimizeQuality; fill-rule:evenodd; clip-rule:evenodd"
viewBox="0 0 120 120"
 xmlns:xlink="http://www.w3.org/1999/xlink">
 <defs>
  <style type="text/css">
   <![CDATA[
    .fil0 {fill:#010101}
   ]]>
  </style>
 </defs>
 <g id="Layer_x0020_1">
  <metadata id="CorelCorpID_0Corel-Layer"/>
  <path class="fil0" d="M43 72c-3,0 -12,2 -14,3 -5,2 -6,6 -7,11l-4 22c-1,2 -1,5 -1,7l84 0c0,-2 -1,-5 -1,-7l-4 -22c-1,-5 -2,-9 -7,-11 -2,-1 -13,-3 -14,-3l-12 32 0 -30 -9 0 0 30 -11 -32z"/>
  <path class="fil0" d="M54 6l0 15c0,5 -5,4 -5,2 -1,-1 0,-4 0,-5 0,-3 0,-7 0,-10 -3,0 -7,5 -9,7 -4,4 -8,12 -8,18 -7,0 -7,8 -2,9 2,0 46,0 52,0 4,0 8,0 9,-3 0,-2 0,-3 -1,-5 -1,-1 -2,-1 -4,-1 -1,-5 -4,-12 -6,-15 -2,-3 -3,-4 -5,-6 -1,-1 -4,-4 -6,-4 0,1 0,14 0,15 0,1 -1,2 -3,2 -2,-1 -2,-5 -2,-9 0,-3 0,-7 0,-10 -2,-1 -8,-1 -10,0z"/>
  <path class="fil0" d="M83 45l-49 0c1,13 11,24 25,24 4,0 7,-1 10,-2 5,-2 10,-7 12,-12 2,-3 2,-6 2,-10z"/>
 </g>
</svg>
