<?xml version="1.0" encoding="UTF-8"?>
<!DOCTYPE svg PUBLIC "-//W3C//DTD SVG 1.1//EN" "http://www.w3.org/Graphics/SVG/1.1/DTD/svg11.dtd">
<!-- Creator: CorelDRAW X7 -->
<svg xmlns="http://www.w3.org/2000/svg" xml:space="preserve" width="2953px" height="2953px" version="1.1" style="shape-rendering:geometricPrecision; text-rendering:geometricPrecision; image-rendering:optimizeQuality; fill-rule:evenodd; clip-rule:evenodd"
viewBox="0 0 2953 2953"
 xmlns:xlink="http://www.w3.org/1999/xlink">
 <defs>
  <style type="text/css">
   <![CDATA[
    .fil0 {fill:#FAC01B}
   ]]>
  </style>
 </defs>
 <g id="Layer_x0020_1">
  <metadata id="CorelCorpID_0Corel-Layer"/>
  <g id="_2355804004864">
   <g>
    <path class="fil0" d="M2470 1326c0,-1 1,-3 1,-4 0,-4 0,-7 1,-11 6,-28 33,-50 64,-50 27,0 47,14 59,38 2,3 3,8 4,12 1,2 1,5 1,7 0,1 1,7 1,7 -1,18 -6,33 -19,46 -26,26 -67,25 -92,0 -11,-10 -19,-27 -19,-42 0,0 0,-1 0,-2 0,-1 -1,-1 -1,-1zm65 -91c-1,0 -5,0 -6,0 -3,0 -11,1 -14,2 -17,4 -33,12 -45,24 -7,8 -14,17 -18,28 -5,13 -8,22 -8,37 0,36 22,68 55,83 11,5 17,5 27,7 8,2 23,0 31,-2 6,-1 11,-3 17,-6 33,-15 53,-46 54,-83 0,-4 -2,-17 -3,-21 -2,-6 -3,-11 -6,-17 -8,-18 -28,-38 -46,-45 -3,-1 -6,-2 -8,-3 -7,-2 -18,-4 -25,-4l-4 -1c-2,0 1,0 -1,1z"/>
    <path class="fil0" d="M2502 1370l67 0c0,-7 1,-44 0,-48 -2,-3 -5,-4 -8,-4 -5,0 -7,-1 -10,3 -2,2 -9,13 -11,14 -1,-1 -2,-4 -2,-5 8,-14 3,-12 -3,-12 -1,0 -3,0 -4,0 -1,1 -1,1 -2,2 1,2 3,6 4,8 1,2 2,3 -2,7 -2,-2 -8,-11 -10,-14 -2,-4 -5,-3 -9,-3 -13,0 -10,8 -10,27 0,9 0,17 0,25z"/>
    <path class="fil0" d="M2419 1286c3,0 23,0 28,0 1,-6 12,-21 16,-25 8,-8 12,-13 21,-18 2,-1 1,0 2,-1 2,-10 -14,-11 -18,-7l-11 16 -3 -6c7,-12 5,-12 -2,-12 -4,0 -4,0 -6,3l4 9 -2 6c-14,-18 -9,-18 -20,-18 -13,0 -10,11 -10,28 0,4 0,22 1,25z"/>
    <path class="fil0" d="M2586 1242c0,1 4,3 6,4 2,1 4,3 6,4 4,4 7,7 10,11 4,4 15,19 17,25l28 0c0,-6 1,-46 -1,-49 -2,-3 -4,-4 -8,-4 -11,0 -8,1 -20,18l-3 -6c1,-3 5,-7 5,-11 -2,-1 -11,-1 -13,0 -1,2 5,9 4,12 0,1 -1,2 -1,2l-1 2 -11 -16c-2,-1 -18,-5 -18,8z"/>
    <path class="fil0" d="M2616 1186c-2,0 -4,0 -8,2 -3,2 -4,3 -6,6 -4,4 -6,11 -5,17 3,11 14,20 26,18 19,-4 25,-28 10,-39 -3,-3 -7,-5 -12,-5l-4 0c0,0 0,0 0,0 -1,1 -1,1 -1,1z"/>
    <path class="fil0" d="M2531 1271c-6,2 -9,2 -13,8 -4,5 -5,11 -4,17 3,12 13,20 27,17 17,-2 24,-28 8,-39 -3,-2 -5,-3 -8,-3 -2,-1 -2,-1 -5,-1 0,0 -1,0 -2,0 -3,0 -3,1 -3,1z"/>
    <path class="fil0" d="M2449 1186c-7,1 -1,-1 -8,2 -5,3 -8,8 -10,13 -5,14 9,32 25,28 9,-2 15,-8 18,-16 2,-8 -1,-18 -8,-23 -3,-2 -8,-4 -12,-5l-4 0c0,0 0,0 0,0 -2,1 -1,1 -1,1z"/>
    <path class="fil0" d="M2603 1396c4,2 8,5 11,8 4,3 8,6 12,8 4,4 9,8 14,9l4 0c3,0 5,-1 7,-4 4,-4 4,-10 1,-14 -2,-4 -7,-7 -10,-9 -7,-6 -15,-12 -22,-17 -2,0 -6,6 -8,9 -3,3 -7,7 -9,10z"/>
   </g>
  </g>
 </g>
</svg>
