<?xml version="1.0" encoding="UTF-8"?>
<!DOCTYPE svg PUBLIC "-//W3C//DTD SVG 1.1//EN" "http://www.w3.org/Graphics/SVG/1.1/DTD/svg11.dtd">
<!-- Creator: CorelDRAW X7 -->
<svg xmlns="http://www.w3.org/2000/svg" xml:space="preserve" width="236px" height="236px" version="1.1" style="shape-rendering:geometricPrecision; text-rendering:geometricPrecision; image-rendering:optimizeQuality; fill-rule:evenodd; clip-rule:evenodd"
viewBox="0 0 236 236"
 xmlns:xlink="http://www.w3.org/1999/xlink">
 <defs>
  <style type="text/css">
   <![CDATA[
    .fil0 {fill:#FAC01B}
   ]]>
  </style>
 </defs>
 <g id="Layer_x0020_1">
  <metadata id="CorelCorpID_0Corel-Layer"/>
  <g id="_2355803996352">
   <g>
    <path class="fil0" d="M60 135c0,-1 0,-2 0,-3 0,-4 1,-6 1,-10 5,-25 29,-45 56,-45 24,0 43,13 53,34 2,3 3,8 4,11 0,2 0,4 1,6 0,1 0,6 0,7 0,15 -5,29 -17,40 -22,23 -59,22 -81,0 -9,-9 -17,-24 -17,-37 0,-1 0,-1 0,-2 0,-1 0,-1 0,-1zm57 -81c-1,0 -4,0 -5,0 -3,0 -10,1 -13,2 -15,4 -29,11 -39,22 -7,7 -13,15 -17,24 -5,12 -7,20 -7,33 0,32 20,61 49,74 10,4 15,4 24,6 7,1 20,0 27,-2 5,-1 11,-3 15,-5 30,-14 48,-41 48,-74 0,-4 -2,-15 -2,-18 -2,-6 -3,-10 -6,-15 -7,-17 -24,-34 -41,-40 -2,-1 -5,-2 -7,-3 -5,-2 -16,-4 -22,-4l-3 0c-2,0 0,0 -1,0z"/>
    <path class="fil0" d="M88 174l59 0c0,-6 1,-39 0,-42 -1,-4 -4,-4 -7,-4 -5,0 -7,-1 -9,2 -2,3 -8,12 -9,13 -1,-1 -2,-3 -3,-5 7,-12 3,-10 -2,-10 -1,0 -3,0 -3,0 -2,0 -1,1 -2,2 0,2 2,5 3,7 1,1 2,2 -1,6 -2,-2 -7,-10 -9,-13 -2,-3 -5,-2 -9,-2 -11,0 -8,7 -8,24 0,8 0,15 0,22z"/>
    <path class="fil0" d="M14 99c2,1 21,0 25,0 1,-5 10,-18 14,-22 7,-7 11,-11 19,-16 2,-1 1,0 1,-1 2,-9 -12,-9 -15,-6l-10 14 -3 -5c7,-10 5,-10 -2,-10 -3,0 -4,-1 -5,2l4 9 -2 4c-12,-16 -8,-15 -18,-15 -11,0 -8,9 -8,24 0,4 -1,20 0,22z"/>
    <path class="fil0" d="M162 60c0,1 4,3 5,4 2,1 4,3 5,4 4,3 7,6 10,9 4,4 13,17 14,22l26 0c0,-5 0,-40 -1,-43 -2,-3 -4,-3 -8,-3 -10,0 -6,1 -17,15l-3 -4c1,-4 5,-7 4,-10 -2,-2 -9,-2 -11,0 -1,2 4,8 4,11 0,0 -1,1 -1,1l-1 2 -10 -14c-1,-1 -16,-5 -16,6z"/>
    <path class="fil0" d="M189 11c-2,0 -4,0 -8,2 -2,2 -3,3 -5,5 -3,4 -5,10 -4,15 2,10 12,18 23,16 17,-3 22,-25 9,-35 -3,-2 -7,-3 -11,-4l-3 0c0,0 -1,0 -1,0 -1,1 0,1 0,1z"/>
    <path class="fil0" d="M114 86c-6,2 -8,2 -12,7 -4,5 -5,10 -4,16 3,10 12,17 24,15 16,-3 21,-25 7,-35 -2,-1 -4,-2 -6,-3 -2,0 -3,0 -5,0 -1,0 -2,0 -2,0 -2,0 -2,0 -2,0z"/>
    <path class="fil0" d="M40 11c-5,1 -1,-1 -7,2 -4,2 -7,7 -8,11 -5,13 8,28 22,25 8,-2 13,-7 15,-14 3,-7 0,-16 -6,-21 -3,-2 -7,-3 -11,-4l-4 0c0,0 0,0 0,0 -1,1 0,1 -1,1z"/>
    <path class="fil0" d="M177 197c4,2 7,5 10,7 4,3 7,5 10,8 4,3 9,7 13,8l4 0c2,-1 4,-2 6,-4 3,-4 4,-9 1,-13 -2,-3 -6,-6 -9,-8 -7,-5 -14,-10 -20,-15 -2,1 -5,6 -7,9 -2,2 -6,6 -8,8z"/>
   </g>
  </g>
 </g>
</svg>
