<?xml version="1.0" encoding="UTF-8"?>
<!DOCTYPE svg PUBLIC "-//W3C//DTD SVG 1.1//EN" "http://www.w3.org/Graphics/SVG/1.1/DTD/svg11.dtd">
<!-- Creator: CorelDRAW X7 -->
<svg xmlns="http://www.w3.org/2000/svg" xml:space="preserve" width="236px" height="236px" version="1.1" style="shape-rendering:geometricPrecision; text-rendering:geometricPrecision; image-rendering:optimizeQuality; fill-rule:evenodd; clip-rule:evenodd"
viewBox="0 0 236 236"
 xmlns:xlink="http://www.w3.org/1999/xlink">
 <defs>
  <style type="text/css">
   <![CDATA[
    .fil0 {fill:#FAC01B}
   ]]>
  </style>
 </defs>
 <g id="Layer_x0020_1">
  <metadata id="CorelCorpID_0Corel-Layer"/>
  <path class="fil0" d="M74 204c0,0 0,1 1,1l63 0 -8 -15c-9,5 -12,5 -21,0l-35 14z"/>
  <path class="fil0" d="M44 180c7,-1 10,-6 16,-9 -1,-5 -9,-10 -14,-12l-2 21z"/>
  <path class="fil0" d="M57 205c13,-12 48,-23 65,-24l-12 -16c-24,7 -44,16 -67,27 -1,4 -3,9 -2,13l16 0z"/>
  <path class="fil0" d="M50 149l34 -2c1,-4 -1,-15 -1,-19l-30 0 -3 21z"/>
  <path class="fil0" d="M55 153c10,6 12,6 12,18 5,0 35,-7 37,-8 -4,-5 -13,-14 -19,-14 -6,1 -27,3 -30,4z"/>
  <path class="fil0" d="M110 36c31,-9 41,41 10,47 -30,6 -41,-38 -10,-47zm5 119c6,-4 33,-53 36,-62l3 -6c10,-24 14,-46 -11,-65 -12,-10 -27,-13 -42,-7 -10,3 -15,6 -22,14 -2,3 -4,6 -6,10 -8,17 -5,25 1,42 2,5 5,11 7,16 4,9 8,17 13,25 6,10 13,22 20,31 0,0 0,1 1,2z"/>
  <path class="fil0" d="M24 219l184 0c13,0 15,-11 12,-23 -3,-9 -6,-18 -8,-27 -1,0 -1,-1 -1,-2 0,-1 0,-1 -1,-2 0,0 0,-1 0,-1 0,0 0,-1 0,-1 -1,-2 -1,-3 -2,-5 0,-1 -1,-3 -1,-4 0,0 0,-1 0,-1 -1,-1 -1,-3 -2,-4 0,-1 0,-1 0,-1 0,-1 0,-2 -1,-3 0,0 0,0 0,-1 0,-1 -1,-2 -1,-3 -1,-3 -2,-5 -3,-8 0,-2 -1,-4 -1,-6 0,0 -1,-1 -1,-2 0,0 0,-1 0,-1 -1,-3 -2,-7 -3,-10 -1,-1 -1,-1 -1,-1 0,-2 -1,-3 -1,-5 0,-1 -1,-1 -1,-2 -1,-3 -2,-7 -3,-10 -6,-12 -22,-10 -35,-9l-3 6c27,0 30,-4 35,13l21 71c2,6 7,16 7,25 1,6 0,11 -7,11l-180 0c-14,-1 -2,-28 0,-36l21 -70c2,-5 3,-12 9,-14 4,-1 17,0 22,0 -1,-2 0,-5 -2,-6 -14,0 -28,-3 -33,12 -3,11 -7,23 -10,34l-20 64c-2,6 0,22 10,22z"/>
  <path class="fil0" d="M173 132c0,-6 -1,-8 -1,-14 0,-3 0,-4 -4,-5 -3,-2 -9,-1 -12,0 -1,0 -1,0 -2,1 -1,1 0,9 0,12 0,1 -1,10 0,11 1,4 6,7 10,9 5,4 8,1 14,1 1,0 3,0 4,0 -3,-3 -5,-7 -7,-11 -1,-1 -1,-3 -2,-4z"/>
  <path class="fil0" d="M84 121l1 0c0,-1 1,-6 1,-7 0,-1 -2,0 -3,0 -2,0 -8,-1 -10,-2 -2,0 -3,-1 -2,2 1,1 3,6 4,6 1,0 6,1 7,1 1,0 1,0 1,0l1 0z"/>
  <path class="fil0" d="M126 161l7 15c8,-3 22,-8 30,-8 9,1 15,12 25,12l-6 -23c-11,-2 -20,-4 -31,-3 -10,0 -17,5 -25,7z"/>
  <path class="fil0" d="M133 153l20 -4 -5 -14c-7,6 -11,9 -15,18z"/>
  <path class="fil0" d="M194 205c0,-4 -1,-13 -2,-17 -5,-1 -11,-1 -16,-4 -18,-8 9,-8 -35,-8l-2 6 17 23 38 0z"/>
 </g>
</svg>
