<?xml version="1.0" encoding="UTF-8"?>
<!DOCTYPE svg PUBLIC "-//W3C//DTD SVG 1.1//EN" "http://www.w3.org/Graphics/SVG/1.1/DTD/svg11.dtd">
<!-- Creator: CorelDRAW X7 -->
<svg xmlns="http://www.w3.org/2000/svg" xml:space="preserve" width="236px" height="236px" version="1.1" style="shape-rendering:geometricPrecision; text-rendering:geometricPrecision; image-rendering:optimizeQuality; fill-rule:evenodd; clip-rule:evenodd"
viewBox="0 0 236 236"
 xmlns:xlink="http://www.w3.org/1999/xlink">
 <defs>
  <style type="text/css">
   <![CDATA[
    .fil0 {fill:#FAC01B}
   ]]>
  </style>
 </defs>
 <g id="Layer_x0020_1">
  <metadata id="CorelCorpID_0Corel-Layer"/>
  <g id="_2355803996992">
   <path class="fil0" d="M24 198l0 -166c0,-2 0,-4 1,-5 0,-1 1,-2 1,-2 2,-2 3,-3 6,-4 2,-1 4,-2 6,-2l158 0c4,0 9,3 11,6 1,0 1,1 2,2 1,1 1,3 1,5l0 166c0,2 0,3 -1,5 -2,2 -3,3 -5,5 -1,0 -2,1 -2,1 -2,1 -4,1 -6,1l-158 0c-3,0 -5,-1 -8,-2l-4 -3c-1,-2 -2,-4 -2,-7zm-11 -163l0 159c0,8 2,13 6,17 3,3 10,7 17,7l162 0c7,0 13,-4 17,-7 2,-2 3,-5 4,-7 1,-3 2,-6 2,-10l0 -159c0,-7 -2,-12 -6,-16 -3,-4 -10,-8 -17,-8l-162 0c-10,0 -19,7 -22,15 0,2 -1,6 -1,9z"/>
   <path class="fil0" d="M85 69c0,1 2,6 3,7 3,9 3,7 -1,11 -1,1 -2,2 -3,4 0,-1 -6,-7 -6,-7 0,-1 5,-14 5,-15 0,0 -1,0 -1,-2l5 0c-1,1 -2,2 -2,2zm-14 -20c0,11 4,12 7,16 -8,2 -18,11 -18,21 0,1 3,2 4,3 3,1 4,1 7,1 9,2 24,2 33,-1 1,0 4,-2 4,-3 0,-11 -12,-20 -17,-21 1,-2 2,-1 4,-5 8,-13 -3,-29 -16,-23l-4 2c-2,2 -4,7 -4,10z"/>
   <path class="fil0" d="M60 105c0,2 2,4 4,4l106 0c3,0 7,-8 -3,-8l-100 0c-4,0 -7,1 -7,4z"/>
   <path class="fil0" d="M60 123c0,2 2,4 5,4l104 0c1,0 3,-1 3,-1 2,-1 2,-4 0,-6 -1,-1 -2,-1 -4,-1l-101 0c-4,0 -7,1 -7,4z"/>
   <path class="fil0" d="M60 140c0,3 2,4 6,4l102 0c8,0 7,-8 0,-8l-102 0c-2,0 -3,1 -4,1 -1,1 -2,2 -2,3z"/>
   <path class="fil0" d="M112 158c0,1 1,2 2,3 1,0 2,1 4,1l50 0c8,0 7,-8 1,-8l-52 0c-3,0 -5,2 -5,4z"/>
   <path class="fil0" d="M128 191c0,2 0,5 4,5l37 0c6,0 6,-8 0,-8l-38 0c-1,0 -3,2 -3,3z"/>
  </g>
 </g>
</svg>
