<?xml version="1.0" encoding="UTF-8"?>
<!DOCTYPE svg PUBLIC "-//W3C//DTD SVG 1.1//EN" "http://www.w3.org/Graphics/SVG/1.1/DTD/svg11.dtd">
<!-- Creator: CorelDRAW X7 -->
<svg xmlns="http://www.w3.org/2000/svg" xml:space="preserve" width="20px" height="20px" version="1.1" style="shape-rendering:geometricPrecision; text-rendering:geometricPrecision; image-rendering:optimizeQuality; fill-rule:evenodd; clip-rule:evenodd"
viewBox="0 0 20 20"
 xmlns:xlink="http://www.w3.org/1999/xlink">
 <defs>
  <style type="text/css">
   <![CDATA[
    .fil1 {fill:#201E1E}
    .fil0 {fill:#201E1E;fill-rule:nonzero}
   ]]>
  </style>
 </defs>
 <g id="Layer_x0020_1">
  <metadata id="CorelCorpID_0Corel-Layer"/>
  <path class="fil0" d="M3 2l0 0 0 0c1,-1 3,-1 5,-1 2,0 3,1 5,2l0 0 0 0c1,2 1,4 1,5 0,2 -1,4 -2,5l0 0 0 0c-2,1 -3,2 -5,1 -2,0 -4,0 -5,-2l0 0 0 0c-1,-1 -2,-3 -1,-5 0,-2 1,-3 2,-5zm5 1c-1,0 -3,0 -3,1l0 0c-1,1 -2,2 -2,3 0,1 0,3 1,4l0 0c1,0 2,1 3,1 1,0 2,0 3,-1l0 0c1,-1 2,-2 2,-3 0,-1 0,-2 -1,-3l0 0c-1,-1 -2,-2 -3,-2z"/>
  <rect class="fil1" transform="matrix(5.71217 -4.78401 2.88747 3.44767 9.52881 12.2533)" width="0.379816" height="2.21285"/>
 </g>
</svg>
